# xmcd CD database file
#
# Track frame offsets:
#	150
#	11300
#	28595
#	55967
#	81375
#	97750
#	124430
#	155027
#	172437
#	205860
#	231992
#	256792
#
# Disc length: 3664 seconds
#
# Revision: 0
# Processed by: cddbd v1.5.1PL0 Copyright (c) Steve Scherf et al.
# Submitted via: CDex 1.51
#
DISCID=a00e4e0c
DTITLE=Verve - Verve - Home Of The Giants
DYEAR=1996
DGENRE=Jazz
TTITLE0=The Rosenberg Trio - It Don't Mean A Thing If It Ain't Got That Swing
TTITLE1=Shirley Horn - Keepin Out Of Mischief Now
TTITLE2=Pharoah Sanders - Country Mile
TTITLE3=US3 -  Chili Hot
TTITLE4=Johnny Copeland  - Monkey On MY Back
TTITLE5=Larry Garner - Blues Pay My Way
TTITLE6=Mark Whitfield  - Businessman's Bounce
TTITLE7=Van Morrison - Thats Life
TTITLE8=John McLaughlin - Django
TTITLE9=Hank Jones And Cheick-Tidiane Seck - Sarala
TTITLE10=Ray Bryant and Ray Brown - Smack Dab In The Middle
TTITLE11=Various Artist - Lafayette
EXTD=YEAR: 1996
EXTT0=
EXTT1=
EXTT2=
EXTT3=
EXTT4=
EXTT5=
EXTT6=
EXTT7=
EXTT8=
EXTT9=
EXTT10=
EXTT11=
PLAYORDER=
